<svg xmlns="http://www.w3.org/2000/svg" version="1.1" xmlns:xlink="http://www.w3.org/1999/xlink" xmlns:svgjs="http://svgjs.dev/svgjs" width="50" height="50"><svg width="50" height="50" viewBox="0 0 50 50" fill="none" xmlns="http://www.w3.org/2000/svg">
<rect width="50" height="50" rx="11" fill="black"></rect>
<path d="M22.0341 20.3295C21.9053 19.8523 21.7159 19.4318 21.4659 19.0682C21.2159 18.697 20.9091 18.3826 20.5455 18.125C20.1818 17.8674 19.7652 17.6742 19.2955 17.5455C18.8258 17.4091 18.3106 17.3409 17.75 17.3409C16.6212 17.3409 15.6439 17.6136 14.8182 18.1591C14 18.7045 13.3674 19.5 12.9205 20.5455C12.4735 21.5833 12.25 22.8447 12.25 24.3295C12.25 25.822 12.4659 27.0947 12.8977 28.1477C13.3295 29.2008 13.9545 30.0038 14.7727 30.5568C15.5909 31.1098 16.5833 31.3864 17.75 31.3864C18.7803 31.3864 19.6515 31.2197 20.3636 30.8864C21.0833 30.5455 21.6288 30.0644 22 29.4432C22.3712 28.822 22.5568 28.0909 22.5568 27.25L23.6023 27.375H17.9432V23.2727H27.9773V26.3523C27.9773 28.4356 27.5341 30.2197 26.6477 31.7045C25.7689 33.1894 24.5568 34.3295 23.0114 35.125C21.4735 35.9205 19.7045 36.3182 17.7045 36.3182C15.4848 36.3182 13.5341 35.8371 11.8523 34.875C10.1705 33.9129 8.85985 32.5417 7.92045 30.7614C6.98106 28.9735 6.51136 26.8523 6.51136 24.3977C6.51136 22.4886 6.79545 20.7955 7.36364 19.3182C7.93182 17.8333 8.72348 16.5758 9.73864 15.5455C10.7614 14.5152 11.9432 13.7348 13.2841 13.2045C14.6326 12.6742 16.0833 12.4091 17.6364 12.4091C18.9848 12.4091 20.2386 12.6023 21.3977 12.9886C22.5644 13.375 23.5947 13.9205 24.4886 14.625C25.3902 15.3295 26.1212 16.1667 26.6818 17.1364C27.2424 18.1061 27.5909 19.1705 27.7273 20.3295H22.0341ZM31.2926 36V12.7273H36.9176V31.4318H46.5994V36H31.2926Z" fill="white"></path>
</svg><style>@media (prefers-color-scheme: light) { :root { filter: none; } }
@media (prefers-color-scheme: dark) { :root { filter: none; } }
</style></svg>