<svg xmlns="http://www.w3.org/2000/svg" xmlns:xlink="http://www.w3.org/1999/xlink" viewBox="0,0,256,256" width="48px" height="48px" fill-rule="evenodd"><g fill="none" fill-rule="evenodd" stroke="none" stroke-width="1" stroke-linecap="butt" stroke-linejoin="miter" stroke-miterlimit="10" stroke-dasharray="" stroke-dashoffset="0" font-family="none" font-weight="none" font-size="none" text-anchor="none" style="mix-blend-mode: normal"><g transform="scale(5.33333,5.33333)"><path d="M33.568,16h-5l4.216,-6h5zM39.568,16h-5l4.216,-6h5z" fill="#000000"></path><path d="M29.351,22h-5l4.217,-6h5zM35.351,22h-5l4.217,-6h5z" fill="#000000"></path><path d="M25.135,28h-5l4.216,-6h5zM31.135,28h-5l4.216,-6h5z" fill="#000000"></path><path d="M12.143,36l2.857,4l-4,1l-3.667,-5zM18.143,36l2.857,4l-4,1l-3.667,-5z" fill="#000000"></path><path d="M18.143,36h-4.81l-3.666,-5h4.904z" fill="#000000"></path><path d="M20.919,34h-5l4.216,-6h5zM26.919,34h-5l4.216,-6h5z" fill="#000000"></path><path d="M16,41h-5l4.919,-7h5zM22,41h-5l4.919,-7h5z" fill="#000000"></path><path d="M37.784,10h-5l4.216,-6h5zM43.784,10h-5l4.216,-6h5z" fill="#000000"></path><path d="M12.143,36h-4.81l-3.666,-5h4.904z" fill="#000000"></path><path d="M8.571,31h-4.904l-3.667,-5h5zM14.571,31h-4.904l-3.667,-5h5z" fill="#000000"></path><path d="M-1,-1h50v50h-50z" fill="none"></path></g></g></svg>