<svg aria-hidden="true" style="position: absolute; width: 0; height: 0; overflow: hidden;" version="1.1" xmlns="http://www.w3.org/2000/svg" xmlns:xlink="http://www.w3.org/1999/xlink">
<defs>
<symbol id="icon-commodore-amiga" viewBox="0 0 32 32">
<path d="M22.379 10.667h-3.333l2.811-4h3.333zM26.379 10.667h-3.333l2.811-4h3.333z"></path>
<path d="M19.567 14.667h-3.333l2.811-4h3.333zM23.567 14.667h-3.333l2.811-4h3.333z"></path>
<path d="M16.757 18.667h-3.333l2.811-4h3.333zM20.757 18.667h-3.333l2.811-4h3.333z"></path>
<path d="M8.095 24l1.905 2.667-2.667 0.667-2.445-3.333zM12.095 24l1.905 2.667-2.667 0.667-2.445-3.333z"></path>
<path d="M12.095 24h-3.207l-2.444-3.333h3.269z"></path>
<path d="M13.946 22.667h-3.333l2.811-4h3.333zM17.946 22.667h-3.333l2.811-4h3.333z"></path>
<path d="M10.667 27.333h-3.333l3.279-4.667h3.333zM14.667 27.333h-3.333l3.279-4.667h3.333z"></path>
<path d="M25.189 6.667h-3.333l2.811-4h3.333zM29.189 6.667h-3.333l2.811-4h3.333z"></path>
<path d="M8.095 24h-3.207l-2.444-3.333h3.269z"></path>
<path d="M5.714 20.667h-3.269l-2.445-3.333h3.333zM9.714 20.667h-3.269l-2.445-3.333h3.333z"></path>
</symbol>
<symbol id="icon-ios" viewBox="0 0 32 32">
<path d="M22 2c1.105 0 2 0.895 2 2v0 24c0 1.105-0.895 2-2 2v0h-12c-1.105 0-2-0.895-2-2v0-24c0-1.105 0.895-2 2-2v0zM10 0c-2.209 0-4 1.791-4 4v0 24c0 2.209 1.791 4 4 4v0h12c2.209 0 4-1.791 4-4v0-24c0-2.209-1.791-4-4-4v0z"></path>
<path d="M16 28c1.105 0 2-0.895 2-2s-0.895-2-2-2v0c-1.105 0-2 0.895-2 2s0.895 2 2 2v0z"></path>
</symbol>
<symbol id="icon-cross" viewBox="0 0 32 32">
<path stroke-linejoin="round" stroke-linecap="round" stroke-miterlimit="4" stroke-width="2.6667" d="M24 8l-16 16"></path>
<path stroke-linejoin="round" stroke-linecap="round" stroke-miterlimit="4" stroke-width="2.6667" d="M8 8l16 16"></path>
</symbol>
<symbol id="icon-menu" viewBox="0 0 32 32">
<path stroke-linejoin="round" stroke-linecap="round" stroke-miterlimit="4" stroke-width="2.6667" d="M4 16h24"></path>
<path stroke-linejoin="round" stroke-linecap="round" stroke-miterlimit="4" stroke-width="2.6667" d="M4 8h24"></path>
<path stroke-linejoin="round" stroke-linecap="round" stroke-miterlimit="4" stroke-width="2.6667" d="M4 24h24"></path>
</symbol>
<symbol id="icon-android" viewBox="0 0 32 32">
<path d="M20.426 2.942l1.382-2.52q0.138-0.248-0.096-0.384-0.256-0.114-0.39 0.116l-1.4 2.54c-1.137-0.513-2.466-0.812-3.864-0.812-0.017 0-0.034 0-0.050 0h0.003q-2.064 0-3.912 0.808l-1.4-2.54q-0.136-0.224-0.39-0.11-0.234 0.138-0.098 0.386l1.382 2.518c-1.378 0.688-2.508 1.692-3.326 2.921l-0.020 0.031c-0.781 1.155-1.246 2.578-1.246 4.11 0 0.012 0 0.024 0 0.036v-0.002h18q0-2.25-1.246-4.144c-0.835-1.257-1.958-2.26-3.279-2.93l-0.049-0.022zM12.44 6.606c-0.134 0.136-0.321 0.22-0.527 0.22-0.003 0-0.005 0-0.008-0h0c-0.005 0-0.011 0-0.016 0-0.201 0-0.382-0.085-0.509-0.22l-0-0c-0.132-0.134-0.214-0.318-0.214-0.521 0-0.003 0-0.005 0-0.008v0c-0-0.003-0-0.006-0-0.009 0-0.203 0.082-0.387 0.214-0.521l-0 0c0.128-0.136 0.309-0.22 0.51-0.22 0.006 0 0.011 0 0.017 0l-0.001-0q0.31 0 0.534 0.22c0.138 0.131 0.224 0.317 0.224 0.522 0 0.003-0 0.006-0 0.008v-0c0 0.002 0 0.004 0 0.006 0 0.205-0.086 0.391-0.224 0.522l-0 0zM20.642 6.606c-0.128 0.136-0.309 0.22-0.51 0.22-0.005 0-0.010-0-0.015-0h0.001c-0.003 0-0.006 0-0.009 0-0.206 0-0.392-0.084-0.526-0.22l-0-0c-0.138-0.131-0.224-0.317-0.224-0.522 0-0.002 0-0.004 0-0.006v0q0-0.308 0.224-0.53c0.134-0.136 0.321-0.22 0.527-0.22 0.003 0 0.007 0 0.010 0h-0q0.31 0 0.524 0.22c0.132 0.134 0.214 0.318 0.214 0.521 0 0.003-0 0.007-0 0.010v-0q0 0.306-0.214 0.528zM7 23.54q0 0.882 0.622 1.5 0.622 0.612 1.52 0.614h1.516l0.020 4.364q0 0.828 0.584 1.406c0.349 0.356 0.834 0.576 1.371 0.576 0.010 0 0.020-0 0.030-0l-0.002 0c0.012 0 0.026 0 0.040 0 0.54 0 1.028-0.22 1.38-0.576l0-0c0.36-0.346 0.584-0.832 0.584-1.371 0-0.012-0-0.025-0-0.037l0 0.002v-4.364h2.686v4.364q0 0.828 0.584 1.406c0.352 0.356 0.84 0.576 1.38 0.576 0.014 0 0.028-0 0.042-0l-0.002 0c0.012 0 0.026 0 0.040 0 0.54 0 1.028-0.22 1.38-0.576l0-0c0.36-0.346 0.584-0.832 0.584-1.371 0-0.012-0-0.025-0-0.037l0 0.002v-4.364h1.52q0.872 0 1.498-0.616 0.62-0.614 0.622-1.5v-12.808h-18zM27.99 10.366c-0.011-0-0.023-0-0.036-0-0.532 0-1.015 0.212-1.368 0.557l0-0c-0.361 0.33-0.586 0.804-0.586 1.329 0 0.014 0 0.028 0 0.043l-0-0.002v8.126q0 0.812 0.586 1.38c0.351 0.351 0.836 0.568 1.372 0.568 0.011 0 0.023-0 0.034-0l-0.002 0q0.84 0 1.424-0.568c0.361-0.337 0.586-0.816 0.586-1.347 0-0.012-0-0.023-0-0.035l0 0.002v-8.126c0-0.012 0-0.026 0-0.041 0-0.526-0.226-0.999-0.585-1.328l-0.001-0.001c-0.359-0.344-0.847-0.556-1.384-0.556-0.014 0-0.028 0-0.042 0l0.002-0zM2.586 10.932c0.36-0.35 0.852-0.566 1.394-0.566 0.010 0 0.021 0 0.031 0l-0.002-0q0.82 0 1.404 0.566c0.361 0.33 0.586 0.803 0.586 1.329 0 0.011-0 0.022-0 0.032l0-0.002v8.126c0 0.010 0 0.022 0 0.034 0 0.529-0.221 1.007-0.576 1.345l-0.001 0.001c-0.351 0.351-0.836 0.568-1.372 0.568-0.015 0-0.029-0-0.044-0l0.002 0c-0.008 0-0.018 0-0.028 0-0.543 0-1.036-0.217-1.397-0.569l0 0c-0.361-0.337-0.586-0.816-0.586-1.347 0-0.012 0-0.023 0-0.035l-0 0.002v-8.126q0-0.792 0.586-1.36z"></path>
</symbol>
<symbol id="icon-mac" viewBox="0 0 24 32">
<path d="M19.919 16.794c-0.012-2.294 1.025-4.025 3.125-5.3-1.175-1.681-2.95-2.606-5.294-2.787-2.219-0.175-4.644 1.294-5.531 1.294-0.938 0-3.088-1.231-4.775-1.231-3.487 0.056-7.194 2.781-7.194 8.325q0 2.456 0.9 5.075c0.8 2.294 3.688 7.919 6.7 7.825 1.575-0.038 2.688-1.119 4.737-1.119 1.988 0 3.019 1.119 4.775 1.119 3.038-0.044 5.65-5.156 6.413-7.456-4.075-1.919-3.856-5.625-3.856-5.744zM16.381 6.531c1.706-2.025 1.55-3.869 1.5-4.531-1.506 0.087-3.25 1.025-4.244 2.181-1.094 1.237-1.738 2.769-1.6 4.494 1.631 0.125 3.119-0.713 4.344-2.144z"></path>
</symbol>
<symbol id="icon-atari" viewBox="0 0 32 32">
<path d="M0 28.871s4.205-0.473 7.483-3.179c3.119-2.573 4.247-4.789 5.027-7.301 0.779-2.513 0.895-8.559 0.895-10.352v-4.911h-1.94v1.82c-0.032 2.721-0.267 7.891-1.513 11.259-3.013 8.116-9.951 8.827-9.951 8.827zM32 28.871s-4.205-0.473-7.48-3.179c-3.123-2.573-4.249-4.789-5.029-7.301-0.777-2.513-0.895-8.559-0.895-10.352v-4.911h1.937l0.001 1.82c0.032 2.721 0.269 7.891 1.517 11.259 3.011 8.116 9.947 8.827 9.947 8.827zM14.212 3.131h3.58v25.741h-3.579z"></path>
</symbol>
<symbol id="icon-linux" viewBox="0 0 28 32">
<path d="M13.8 7.706c0.063 0.031 0.113 0.106 0.188 0.106 0.069 0 0.175-0.025 0.181-0.094 0.012-0.088-0.119-0.144-0.2-0.181-0.106-0.044-0.244-0.063-0.344-0.006-0.025 0.013-0.050 0.044-0.037 0.069 0.019 0.081 0.144 0.069 0.213 0.106zM12.431 7.813c0.075 0 0.125-0.075 0.188-0.106 0.069-0.037 0.194-0.025 0.219-0.1 0.012-0.025-0.012-0.056-0.037-0.069-0.1-0.056-0.238-0.037-0.344 0.006-0.081 0.037-0.213 0.094-0.2 0.181 0.006 0.063 0.113 0.094 0.175 0.088zM26.25 25.238c-0.225-0.25-0.331-0.725-0.45-1.231-0.113-0.506-0.244-1.050-0.656-1.4-0.081-0.069-0.163-0.131-0.25-0.181-0.081-0.050-0.169-0.094-0.256-0.125 0.575-1.706 0.35-3.406-0.231-4.944-0.712-1.881-1.956-3.525-2.906-4.65-1.069-1.344-2.106-2.619-2.087-4.5 0.031-2.869 0.319-8.2-4.738-8.206-6.4-0.013-4.8 6.463-4.869 8.45-0.106 1.463-0.4 2.612-1.406 4.044-1.181 1.406-2.844 3.675-3.631 6.044-0.375 1.119-0.55 2.256-0.388 3.331-0.406 0.363-0.712 0.919-1.038 1.262-0.263 0.269-0.644 0.369-1.063 0.519s-0.875 0.375-1.156 0.906c-0.131 0.244-0.175 0.506-0.175 0.775 0 0.244 0.037 0.494 0.075 0.738 0.075 0.506 0.156 0.981 0.050 1.3-0.325 0.9-0.369 1.525-0.137 1.981 0.238 0.456 0.712 0.656 1.256 0.769 1.081 0.225 2.55 0.169 3.706 0.781 1.237 0.65 2.494 0.881 3.494 0.65 0.725-0.163 1.319-0.6 1.619-1.262 0.781-0.006 1.644-0.337 3.019-0.413 0.931-0.075 2.1 0.331 3.444 0.256 0.038 0.144 0.087 0.288 0.156 0.419v0.006c0.519 1.044 1.488 1.519 2.519 1.438 1.038-0.081 2.131-0.688 3.019-1.744 0.85-1.025 2.25-1.45 3.181-2.012 0.462-0.281 0.837-0.631 0.869-1.144 0.025-0.512-0.275-1.081-0.969-1.856zM13.981 5.456c0.613-1.388 2.137-1.362 2.75-0.025 0.406 0.888 0.225 1.931-0.269 2.525-0.1-0.050-0.369-0.162-0.787-0.306 0.069-0.075 0.194-0.169 0.244-0.287 0.3-0.737-0.012-1.688-0.569-1.706-0.456-0.031-0.869 0.675-0.738 1.438-0.256-0.125-0.588-0.219-0.813-0.275-0.063-0.431-0.019-0.912 0.181-1.362zM11.438 4.737c0.631 0 1.3 0.888 1.194 2.094-0.219 0.063-0.444 0.156-0.637 0.287 0.075-0.556-0.206-1.256-0.6-1.225-0.525 0.044-0.613 1.325-0.113 1.756 0.063 0.050 0.119-0.013-0.369 0.344-0.975-0.912-0.656-3.256 0.525-3.256zM10.588 8.531c0.387-0.287 0.85-0.625 0.881-0.656 0.294-0.275 0.844-0.888 1.744-0.888 0.444 0 0.975 0.144 1.619 0.556 0.394 0.256 0.706 0.275 1.413 0.581 0.525 0.219 0.856 0.606 0.656 1.137-0.163 0.444-0.688 0.9-1.419 1.131-0.694 0.225-1.238 1-2.387 0.931-0.244-0.012-0.438-0.063-0.6-0.131-0.5-0.219-0.762-0.65-1.25-0.938-0.537-0.3-0.825-0.65-0.919-0.956-0.088-0.306 0-0.563 0.262-0.769zM10.794 29.406c-0.169 2.194-2.744 2.15-4.706 1.125-1.869-0.988-4.287-0.406-4.781-1.369-0.15-0.294-0.15-0.794 0.163-1.65v-0.012c0.15-0.475 0.038-1-0.038-1.494-0.075-0.488-0.113-0.938 0.056-1.25 0.219-0.419 0.531-0.569 0.925-0.706 0.644-0.231 0.737-0.212 1.225-0.619 0.344-0.356 0.594-0.806 0.894-1.125 0.319-0.344 0.625-0.506 1.106-0.431 0.506 0.075 0.944 0.425 1.369 1l1.225 2.225c0.594 1.244 2.694 3.025 2.563 4.306zM10.706 27.788c-0.256-0.413-0.6-0.85-0.9-1.225 0.444 0 0.887-0.137 1.044-0.556 0.144-0.387 0-0.931-0.463-1.556-0.844-1.137-2.394-2.031-2.394-2.031-0.844-0.525-1.319-1.169-1.538-1.869s-0.188-1.456-0.019-2.2c0.325-1.431 1.163-2.825 1.7-3.7 0.144-0.106 0.050 0.2-0.544 1.3-0.531 1.006-1.525 3.331-0.162 5.15 0.037-1.294 0.344-2.613 0.862-3.844 0.75-1.713 2.331-4.681 2.456-7.044 0.069 0.050 0.287 0.2 0.387 0.256 0.287 0.169 0.506 0.419 0.787 0.644 0.775 0.625 1.781 0.575 2.65 0.075 0.387-0.219 0.7-0.469 0.994-0.563 0.619-0.194 1.112-0.537 1.394-0.938 0.481 1.9 1.606 4.644 2.325 5.981 0.381 0.712 1.144 2.219 1.475 4.038 0.206-0.006 0.438 0.025 0.681 0.087 0.863-2.231-0.731-4.637-1.456-5.306-0.294-0.287-0.306-0.412-0.163-0.406 0.788 0.7 1.825 2.106 2.2 3.688 0.175 0.725 0.206 1.481 0.025 2.231 1.025 0.425 2.244 1.119 1.919 2.175-0.137-0.006-0.2 0-0.262 0 0.2-0.631-0.244-1.1-1.425-1.631-1.225-0.538-2.25-0.538-2.394 0.781-0.756 0.262-1.144 0.919-1.337 1.706-0.175 0.7-0.225 1.544-0.275 2.494-0.031 0.481-0.225 1.125-0.425 1.813-2.006 1.431-4.794 2.056-7.144 0.45zM26.794 27.069c-0.056 1.050-2.575 1.244-3.95 2.906-0.825 0.981-1.837 1.525-2.725 1.594s-1.656-0.3-2.106-1.206c-0.294-0.694-0.15-1.444 0.069-2.269 0.231-0.887 0.575-1.8 0.619-2.538 0.050-0.95 0.106-1.781 0.262-2.419 0.163-0.644 0.413-1.075 0.856-1.319 0.019-0.012 0.044-0.019 0.063-0.031 0.050 0.825 0.456 1.663 1.175 1.844 0.788 0.206 1.919-0.469 2.4-1.019 0.563-0.019 0.981-0.056 1.413 0.319 0.619 0.531 0.444 1.894 1.069 2.6 0.663 0.725 0.875 1.219 0.856 1.538zM10.831 9.294c0.125 0.119 0.294 0.281 0.5 0.444 0.412 0.325 0.988 0.662 1.706 0.662 0.725 0 1.406-0.369 1.988-0.675 0.306-0.162 0.681-0.438 0.925-0.65s0.369-0.394 0.194-0.412-0.162 0.162-0.375 0.319c-0.275 0.2-0.606 0.463-0.869 0.613-0.463 0.262-1.219 0.637-1.869 0.637s-1.169-0.3-1.556-0.606c-0.194-0.156-0.356-0.313-0.481-0.431-0.094-0.088-0.119-0.287-0.269-0.306-0.088-0.006-0.113 0.231 0.106 0.406z"></path>
</symbol>
<symbol id="icon-nintendo" viewBox="0 0 32 32">
<path d="M18.68 16.010c0-8.76 0.020-15.944 0.046-15.964 0.020-0.026 1.346-0.046 2.936-0.046 2.306 0 3.020 0.020 3.486 0.1 3.46 0.596 6.090 3.2 6.746 6.652 0.092 0.484 0.106 1.618 0.106 9.22 0 8.12 0.010 9.074-0.246 9.952-0.044 0.152-0.096 0.3-0.16 0.484-1.042 2.973-3.652 5.142-6.812 5.53l-0.040 0.004c-0.634 0.066-5.778 0.092-5.956 0.026-0.1-0.040-0.106-1.504-0.106-15.958zM28.030 16.548c-0.359-1.014-1.18-1.783-2.203-2.063l-0.023-0.005c-0.242-0.065-0.52-0.103-0.806-0.103-1.431 0-2.645 0.934-3.064 2.226l-0.006 0.023c-0.083 0.297-0.131 0.638-0.131 0.99 0 0.312 0.038 0.616 0.109 0.906l-0.005-0.026c0.42 1.348 1.657 2.31 3.119 2.31 0.279 0 0.55-0.035 0.808-0.101l-0.023 0.005c1.020-0.272 1.816-1.008 2.22-2.056 0.22-0.57 0.226-1.484 0.006-2.106zM7.42 6.634c-0.416 0.080-1.052 0.398-1.39 0.696-0.696 0.602-1.040 1.458-0.988 2.464 0.026 0.524 0.060 0.664 0.272 1.088 0.31 0.642 0.78 1.112 1.424 1.43 0.444 0.22 0.556 0.246 1.134 0.266 0.522 0.020 0.708 0 1.060-0.12 1.438-0.484 2.306-1.88 2.060-3.312-0.284-1.704-1.9-2.844-3.572-2.512z"></path>
<path d="M6.85 0.106c-3.193 0.58-5.717 2.927-6.547 5.972l-0.013 0.058c-0.29 1.12-0.31 1.776-0.28 10.464 0.020 7.98 0.028 8.164 0.16 8.78 0.736 3.32 3.096 5.688 6.448 6.47 0.44 0.1 0.994 0.12 4.58 0.14 3.712 0.024 4.096 0.018 4.194-0.080 0.1-0.1 0.106-1.38 0.106-15.88 0-10.748-0.020-15.812-0.066-15.904-0.066-0.12-0.18-0.126-4.060-0.12-3.156 0.008-4.104 0.028-4.52 0.1zM12.85 29.436l-2.7-0.032c-2.484-0.026-2.75-0.040-3.246-0.166-2.104-0.532-3.714-2.2-4.154-4.297l-0.006-0.037c-0.148-0.67-0.148-17.158-0.008-17.814 0.407-1.874 1.693-3.38 3.394-4.086l0.038-0.014c0.876-0.352 1.28-0.392 4.116-0.4l2.564-0.006v26.852z"></path>
</symbol>
<symbol id="icon-playstation" viewBox="0 0 36 32">
<path d="M35.681 23.269c-0.706 0.887-2.425 1.519-2.425 1.519l-12.819 4.6v-3.394l9.431-3.363c1.069-0.381 1.238-0.925 0.363-1.212-0.869-0.288-2.444-0.206-3.512 0.181l-6.281 2.219v-3.525c1.45-0.488 2.944-0.85 4.731-1.050 2.556-0.281 5.681 0.038 8.137 0.969 2.763 0.875 3.075 2.169 2.375 3.056zM21.656 17.488v-8.688c0-1.019-0.188-1.956-1.144-2.225-0.731-0.237-1.188 0.444-1.188 1.463v21.744l-5.863-1.863v-25.919c2.494 0.462 6.125 1.556 8.075 2.213 4.969 1.706 6.65 3.831 6.65 8.613 0 4.656-2.875 6.425-6.531 4.662zM2.7 25.637c-2.837-0.8-3.313-2.469-2.019-3.425 1.194-0.887 3.231-1.556 3.231-1.556l8.406-2.988v3.406l-6.050 2.163c-1.069 0.381-1.231 0.925-0.362 1.212s2.444 0.206 3.513-0.181l2.9-1.056v3.050c-3.225 0.581-6.338 0.456-9.619-0.625z"></path>
</symbol>
<symbol id="icon-sega" viewBox="0 0 32 32">
<path d="M28.305 5.52l-0.008 4.44h-14.133c-0.292 0-0.529 0.241-0.529 0.532 0 0.295 0.24 0.532 0.529 0.532l3.68-0.021c5.795 0 10.491 4.7 10.491 10.492 0 5.797-4.696 10.492-10.492 10.492l-14.179 0.013 0.007-4.5h14.18c3.316 0 6.005-2.688 6.005-6.005 0-3.32-2.689-6.008-6.008-6.008l-3.695-0.040c-2.747 0-4.969-2.221-4.969-4.96 0-2.748 2.221-4.968 4.964-4.968h14.157zM3.684 26.457l-0.005-4.441h14.145c0.28 0 0.511-0.233 0.511-0.516 0-0.284-0.231-0.513-0.512-0.513h-3.659c-5.793 0-10.489-4.7-10.489-10.495s4.696-10.492 10.489-10.492l14.133 0.004 0.008 4.467-14.139 0.004c-3.32 0-6 2.692-6 6.009 0 3.319 2.699 6.005 6.020 6.005l3.7 0.040c2.74 0 4.96 2.224 4.96 4.965 0 2.74-2.22 4.959-4.96 4.959l-14.203 0.004z"></path>
</symbol>
<symbol id="icon-web" viewBox="0 0 32 32">
<path d="M0 16c0-8.837 7.163-16 16-16s16 7.163 16 16v0c0 8.837-7.163 16-16 16s-16-7.163-16-16v0zM15 2.154c-1.34 0.408-2.67 1.64-3.774 3.71q-0.43 0.806-0.79 1.744c1.41 0.314 2.944 0.514 4.564 0.574zM8.498 7.078q0.428-1.154 0.962-2.156c0.384-0.714 0.78-1.325 1.219-1.9l-0.025 0.034c-1.771 0.744-3.283 1.773-4.552 3.044l-0 0q1.088 0.554 2.396 0.98zM7.018 15c0.072-2.14 0.376-4.174 0.872-6.016-1.208-0.388-2.243-0.84-3.223-1.381l0.093 0.047c-1.532 2.038-2.524 4.562-2.721 7.305l-0.003 0.045zM9.818 9.518c-0.447 1.626-0.735 3.506-0.799 5.442l-0.001 0.040h5.982v-4.818c-1.82-0.060-3.566-0.29-5.182-0.664zM17 10.18v4.82h5.98c-0.064-1.976-0.352-3.856-0.838-5.654l0.040 0.172c-1.616 0.374-3.362 0.602-5.182 0.664zM9.020 17c0.070 1.974 0.352 3.828 0.798 5.482 1.534-0.365 3.314-0.603 5.139-0.661l0.043-0.001v-4.82zM17 17v4.818c1.82 0.060 3.566 0.29 5.182 0.664 0.446-1.654 0.728-3.508 0.8-5.482zM10.436 24.392q0.36 0.938 0.79 1.744c1.104 2.070 2.436 3.3 3.774 3.71v-6.026c-1.62 0.060-3.154 0.26-4.564 0.574zM10.656 28.944c-0.415-0.541-0.812-1.152-1.159-1.792l-0.037-0.074c-0.32-0.588-0.644-1.3-0.921-2.034l-0.041-0.124c-0.939 0.304-1.732 0.636-2.491 1.024l0.095-0.044c1.269 1.271 2.781 2.3 4.46 3.009l0.092 0.035zM7.89 23.016c-0.491-1.785-0.806-3.849-0.873-5.974l-0.001-0.042h-4.98c0.2 2.788 1.192 5.312 2.75 7.386l-0.026-0.036c0.94-0.516 1.99-0.964 3.13-1.334zM21.346 28.944c1.77-0.744 3.281-1.772 4.55-3.042l0-0c-0.664-0.344-1.455-0.676-2.275-0.946l-0.119-0.034c-0.318 0.857-0.642 1.568-1.009 2.252l0.047-0.096c-0.384 0.714-0.78 1.325-1.219 1.9l0.025-0.034zM17 23.818v6.028c1.34-0.408 2.67-1.64 3.774-3.71q0.432-0.806 0.79-1.744c-1.348-0.31-2.916-0.516-4.522-0.571l-0.042-0.001zM24.11 23.016c1.14 0.37 2.19 0.818 3.13 1.334 1.532-2.038 2.524-4.562 2.721-7.305l0.003-0.045h-4.98c-0.068 2.168-0.383 4.231-0.917 6.204l0.043-0.188zM29.964 15c-0.2-2.788-1.192-5.312-2.75-7.386l0.026 0.036c-0.94 0.516-1.99 0.964-3.13 1.334 0.496 1.84 0.8 3.876 0.874 6.016zM22.54 4.922q0.532 1.004 0.964 2.156c0.938-0.304 1.729-0.636 2.487-1.024l-0.095 0.044c-1.269-1.269-2.78-2.296-4.458-3.006l-0.092-0.034c0.436 0.566 0.836 1.194 1.194 1.864zM21.564 7.608c-0.269-0.7-0.535-1.275-0.832-1.83l0.042 0.086c-1.104-2.070-2.434-3.3-3.774-3.71v6.026c1.62-0.060 3.154-0.26 4.564-0.574z"></path>
</symbol>
<symbol id="icon-pc" viewBox="0 0 28 32">
<path d="M0 5.856l11.475-1.581v11.088h-11.475v-9.506zM0 26.144l11.475 1.581v-10.95h-11.475v9.369zM12.738 27.894l15.262 2.106v-13.225h-15.262v11.119zM12.738 4.106v11.256h15.262v-13.363l-15.262 2.106z"></path>
</symbol>
<symbol id="icon-xbox" viewBox="0 0 32 32">
<path d="M23.119 19.887c2.769 3.394 4.044 6.175 3.4 7.419-0.494 0.944-3.544 2.788-5.788 3.494-1.85 0.581-4.275 0.831-6.275 0.637-2.388-0.231-4.806-1.087-6.881-2.438-1.744-1.137-2.138-1.606-2.138-2.538 0-1.869 2.056-5.144 5.575-8.881 2-2.119 4.781-4.606 5.087-4.537 0.587 0.131 5.269 4.694 7.019 6.844zM11.787 8.988c-1.856-1.681-3.631-3.369-5.4-3.963-0.95-0.319-1.019-0.3-1.794 0.506-1.825 1.9-3.344 4.981-3.769 7.65-0.338 2.138-0.381 2.737-0.262 3.781 0.35 3.156 1.081 5.337 2.531 7.556 0.594 0.913 0.756 1.081 0.581 0.619-0.263-0.688-0.019-2.344 0.594-4 0.894-2.438 3.369-7.056 7.519-12.15zM31.262 12.956c-1.056-5-4.219-8.144-4.662-8.144-0.456 0-1.512 0.406-2.25 0.869-1.456 0.906-2.563 1.963-4.019 3.3 2.65 3.331 6.387 8.713 7.681 12.644 0.425 1.294 0.606 2.569 0.462 3.269-0.106 0.531-0.106 0.531 0.087 0.288 0.381-0.481 1.244-1.956 1.587-2.719 0.462-1.012 0.938-2.512 1.163-3.669 0.269-1.406 0.244-4.425-0.050-5.838zM8.831 2.688c2.981-0.156 6.856 2.156 7.144 2.213 0.044 0.006 0.65-0.263 1.35-0.606 3.994-1.944 5.875-1.612 6.712-1.575-3.994-2.456-9.544-3.125-14.619-0.731-1.463 0.694-1.5 0.744-0.588 0.7z"></path>
</symbol>
<symbol id="icon-back" viewBox="0 0 32 32">
<path d="M12.586 27.414l-10-10c-0.781-0.781-0.781-2.047 0-2.828l10-10c0.781-0.781 2.047-0.781 2.828 0s0.781 2.047 0 2.828l-6.586 6.586h19.172c1.105 0 2 0.895 2 2s-0.895 2-2 2h-19.172l6.586 6.586c0.39 0.39 0.586 0.902 0.586 1.414s-0.195 1.024-0.586 1.414c-0.781 0.781-2.047 0.781-2.828 0z"></path>
</symbol>
</defs>
</svg>
